<?xml version="1.0" encoding="utf-8" standalone="no"?>
<!DOCTYPE svg PUBLIC "-//W3C//DTD SVG 1.1//EN"
  "http://www.w3.org/Graphics/SVG/1.1/DTD/svg11.dtd">
<svg xmlns:xlink="http://www.w3.org/1999/xlink" width="498.629276pt" height="209.950594pt" viewBox="0 0 498.629276 209.950594" xmlns="http://www.w3.org/2000/svg" version="1.1">
 <metadata>
  <rdf:RDF xmlns:dc="http://purl.org/dc/elements/1.1/" xmlns:cc="http://creativecommons.org/ns#" xmlns:rdf="http://www.w3.org/1999/02/22-rdf-syntax-ns#">
   <cc:Work>
    <dc:type rdf:resource="http://purl.org/dc/dcmitype/StillImage"/>
    <dc:format>image/svg+xml</dc:format>
    <dc:creator>
     <cc:Agent>
      <dc:title>Matplotlib v3.11.2, https://matplotlib.org/</dc:title>
     </cc:Agent>
    </dc:creator>
   </cc:Work>
  </rdf:RDF>
 </metadata>
 <defs>
  <style type="text/css">*{stroke-linejoin: round; stroke-linecap: butt}</style>
 </defs>
 <g id="figure_1">
  <g id="patch_1">
   <path d="M 0 209.950594 
L 498.629276 209.950594 
L 498.629276 0 
L 0 0 
z
" style="fill: #ffffff"/>
  </g>
  <g id="axes_1">
   <g id="patch_2">
    <path d="M 39.013203 173.749891 
L 258.611239 173.749891 
L 258.611239 55.396929 
L 39.013203 55.396929 
z
" style="fill: #ffffff"/>
   </g>
   <g id="matplotlib.axis_1">
    <g id="xtick_1">
     <g id="line2d_1">
      <path d="M 48.994932 173.749891 
L 48.994932 55.396929 
" clip-path="url(#p6552be59c3)" style="fill: none; stroke: #b0b0b0; stroke-opacity: 0.25; stroke-width: 0.8; stroke-linecap: square"/>
     </g>
     <g id="line2d_2">
      <defs>
       <path id="m9ca0132ff7" d="M 0 0 
L 0 3.5 
" style="stroke: #000000; stroke-width: 0.8"/>
      </defs>
      <g>
       <use xlink:href="#m9ca0132ff7" x="48.994932" y="173.749891" style="stroke: #000000; stroke-width: 0.8"/>
      </g>
     </g>
     <g id="text_1">
      <!-- 1 -->
      <g transform="translate(46.131807 187.587781) scale(0.09 -0.09)">
       <defs>
        <path id="DejaVuSans-14" d="M 794 531 
L 1825 531 
L 1825 4091 
L 703 3866 
L 703 4441 
L 1819 4666 
L 2450 4666 
L 2450 531 
L 3481 531 
L 3481 0 
L 794 0 
L 794 531 
z
" transform="scale(0.015625)"/>
       </defs>
       <use xlink:href="#DejaVuSans-14"/>
      </g>
     </g>
    </g>
    <g id="xtick_2">
     <g id="line2d_3">
      <path d="M 148.812221 173.749891 
L 148.812221 55.396929 
" clip-path="url(#p6552be59c3)" style="fill: none; stroke: #b0b0b0; stroke-opacity: 0.25; stroke-width: 0.8; stroke-linecap: square"/>
     </g>
     <g id="line2d_4">
      <g>
       <use xlink:href="#m9ca0132ff7" x="148.812221" y="173.749891" style="stroke: #000000; stroke-width: 0.8"/>
      </g>
     </g>
     <g id="text_2">
      <!-- 2 -->
      <g transform="translate(145.949096 187.587781) scale(0.09 -0.09)">
       <defs>
        <path id="DejaVuSans-15" d="M 1228 531 
L 3431 531 
L 3431 0 
L 469 0 
L 469 531 
Q 828 903 1448 1529 
Q 2069 2156 2228 2338 
Q 2531 2678 2651 2914 
Q 2772 3150 2772 3378 
Q 2772 3750 2511 3984 
Q 2250 4219 1831 4219 
Q 1534 4219 1204 4116 
Q 875 4013 500 3803 
L 500 4441 
Q 881 4594 1212 4672 
Q 1544 4750 1819 4750 
Q 2544 4750 2975 4387 
Q 3406 4025 3406 3419 
Q 3406 3131 3298 2873 
Q 3191 2616 2906 2266 
Q 2828 2175 2409 1742 
Q 1991 1309 1228 531 
z
" transform="scale(0.015625)"/>
       </defs>
       <use xlink:href="#DejaVuSans-15"/>
      </g>
     </g>
    </g>
    <g id="xtick_3">
     <g id="line2d_5">
      <path d="M 248.62951 173.749891 
L 248.62951 55.396929 
" clip-path="url(#p6552be59c3)" style="fill: none; stroke: #b0b0b0; stroke-opacity: 0.25; stroke-width: 0.8; stroke-linecap: square"/>
     </g>
     <g id="line2d_6">
      <g>
       <use xlink:href="#m9ca0132ff7" x="248.62951" y="173.749891" style="stroke: #000000; stroke-width: 0.8"/>
      </g>
     </g>
     <g id="text_3">
      <!-- 3 -->
      <g transform="translate(245.766385 187.587781) scale(0.09 -0.09)">
       <defs>
        <path id="DejaVuSans-16" d="M 2597 2516 
Q 3050 2419 3304 2112 
Q 3559 1806 3559 1356 
Q 3559 666 3084 287 
Q 2609 -91 1734 -91 
Q 1441 -91 1130 -33 
Q 819 25 488 141 
L 488 750 
Q 750 597 1062 519 
Q 1375 441 1716 441 
Q 2309 441 2620 675 
Q 2931 909 2931 1356 
Q 2931 1769 2642 2001 
Q 2353 2234 1838 2234 
L 1294 2234 
L 1294 2753 
L 1863 2753 
Q 2328 2753 2575 2939 
Q 2822 3125 2822 3475 
Q 2822 3834 2567 4026 
Q 2313 4219 1838 4219 
Q 1578 4219 1281 4162 
Q 984 4106 628 3988 
L 628 4550 
Q 988 4650 1302 4700 
Q 1616 4750 1894 4750 
Q 2613 4750 3031 4423 
Q 3450 4097 3450 3541 
Q 3450 3153 3228 2886 
Q 3006 2619 2597 2516 
z
" transform="scale(0.015625)"/>
       </defs>
       <use xlink:href="#DejaVuSans-16"/>
      </g>
     </g>
    </g>
    <g id="text_4">
     <!-- comunidade (ordenada por tamanho) -->
     <g transform="translate(64.250893 200.588484) scale(0.09 -0.09)">
      <defs>
       <path id="DejaVuSans-46" d="M 3122 3366 
L 3122 2828 
Q 2878 2963 2633 3030 
Q 2388 3097 2138 3097 
Q 1578 3097 1268 2742 
Q 959 2388 959 1747 
Q 959 1106 1268 751 
Q 1578 397 2138 397 
Q 2388 397 2633 464 
Q 2878 531 3122 666 
L 3122 134 
Q 2881 22 2623 -34 
Q 2366 -91 2075 -91 
Q 1284 -91 818 406 
Q 353 903 353 1747 
Q 353 2603 823 3093 
Q 1294 3584 2113 3584 
Q 2378 3584 2631 3529 
Q 2884 3475 3122 3366 
z
" transform="scale(0.015625)"/>
       <path id="DejaVuSans-52" d="M 1959 3097 
Q 1497 3097 1228 2736 
Q 959 2375 959 1747 
Q 959 1119 1226 758 
Q 1494 397 1959 397 
Q 2419 397 2687 759 
Q 2956 1122 2956 1747 
Q 2956 2369 2687 2733 
Q 2419 3097 1959 3097 
z
M 1959 3584 
Q 2709 3584 3137 3096 
Q 3566 2609 3566 1747 
Q 3566 888 3137 398 
Q 2709 -91 1959 -91 
Q 1206 -91 779 398 
Q 353 888 353 1747 
Q 353 2609 779 3096 
Q 1206 3584 1959 3584 
z
" transform="scale(0.015625)"/>
       <path id="DejaVuSans-50" d="M 3328 2828 
Q 3544 3216 3844 3400 
Q 4144 3584 4550 3584 
Q 5097 3584 5394 3201 
Q 5691 2819 5691 2113 
L 5691 0 
L 5113 0 
L 5113 2094 
Q 5113 2597 4934 2840 
Q 4756 3084 4391 3084 
Q 3944 3084 3684 2787 
Q 3425 2491 3425 1978 
L 3425 0 
L 2847 0 
L 2847 2094 
Q 2847 2600 2669 2842 
Q 2491 3084 2119 3084 
Q 1678 3084 1418 2786 
Q 1159 2488 1159 1978 
L 1159 0 
L 581 0 
L 581 3500 
L 1159 3500 
L 1159 2956 
Q 1356 3278 1631 3431 
Q 1906 3584 2284 3584 
Q 2666 3584 2933 3390 
Q 3200 3197 3328 2828 
z
" transform="scale(0.015625)"/>
       <path id="DejaVuSans-58" d="M 544 1381 
L 544 3500 
L 1119 3500 
L 1119 1403 
Q 1119 906 1312 657 
Q 1506 409 1894 409 
Q 2359 409 2629 706 
Q 2900 1003 2900 1516 
L 2900 3500 
L 3475 3500 
L 3475 0 
L 2900 0 
L 2900 538 
Q 2691 219 2414 64 
Q 2138 -91 1772 -91 
Q 1169 -91 856 284 
Q 544 659 544 1381 
z
M 1991 3584 
L 1991 3584 
z
" transform="scale(0.015625)"/>
       <path id="DejaVuSans-51" d="M 3513 2113 
L 3513 0 
L 2938 0 
L 2938 2094 
Q 2938 2591 2744 2837 
Q 2550 3084 2163 3084 
Q 1697 3084 1428 2787 
Q 1159 2491 1159 1978 
L 1159 0 
L 581 0 
L 581 3500 
L 1159 3500 
L 1159 2956 
Q 1366 3272 1645 3428 
Q 1925 3584 2291 3584 
Q 2894 3584 3203 3211 
Q 3513 2838 3513 2113 
z
" transform="scale(0.015625)"/>
       <path id="DejaVuSans-4c" d="M 603 3500 
L 1178 3500 
L 1178 0 
L 603 0 
L 603 3500 
z
M 603 4863 
L 1178 4863 
L 1178 4134 
L 603 4134 
L 603 4863 
z
" transform="scale(0.015625)"/>
       <path id="DejaVuSans-47" d="M 2906 2969 
L 2906 4863 
L 3481 4863 
L 3481 0 
L 2906 0 
L 2906 525 
Q 2725 213 2448 61 
Q 2172 -91 1784 -91 
Q 1150 -91 751 415 
Q 353 922 353 1747 
Q 353 2572 751 3078 
Q 1150 3584 1784 3584 
Q 2172 3584 2448 3432 
Q 2725 3281 2906 2969 
z
M 947 1747 
Q 947 1113 1208 752 
Q 1469 391 1925 391 
Q 2381 391 2643 752 
Q 2906 1113 2906 1747 
Q 2906 2381 2643 2742 
Q 2381 3103 1925 3103 
Q 1469 3103 1208 2742 
Q 947 2381 947 1747 
z
" transform="scale(0.015625)"/>
       <path id="DejaVuSans-44" d="M 2194 1759 
Q 1497 1759 1228 1600 
Q 959 1441 959 1056 
Q 959 750 1161 570 
Q 1363 391 1709 391 
Q 2188 391 2477 730 
Q 2766 1069 2766 1631 
L 2766 1759 
L 2194 1759 
z
M 3341 1997 
L 3341 0 
L 2766 0 
L 2766 531 
Q 2569 213 2275 61 
Q 1981 -91 1556 -91 
Q 1019 -91 701 211 
Q 384 513 384 1019 
Q 384 1609 779 1909 
Q 1175 2209 1959 2209 
L 2766 2209 
L 2766 2266 
Q 2766 2663 2505 2880 
Q 2244 3097 1772 3097 
Q 1472 3097 1187 3025 
Q 903 2953 641 2809 
L 641 3341 
Q 956 3463 1253 3523 
Q 1550 3584 1831 3584 
Q 2591 3584 2966 3190 
Q 3341 2797 3341 1997 
z
" transform="scale(0.015625)"/>
       <path id="DejaVuSans-48" d="M 3597 1894 
L 3597 1613 
L 953 1613 
Q 991 1019 1311 708 
Q 1631 397 2203 397 
Q 2534 397 2845 478 
Q 3156 559 3463 722 
L 3463 178 
Q 3153 47 2828 -22 
Q 2503 -91 2169 -91 
Q 1331 -91 842 396 
Q 353 884 353 1716 
Q 353 2575 817 3079 
Q 1281 3584 2069 3584 
Q 2775 3584 3186 3129 
Q 3597 2675 3597 1894 
z
M 3022 2063 
Q 3016 2534 2758 2815 
Q 2500 3097 2075 3097 
Q 1594 3097 1305 2825 
Q 1016 2553 972 2059 
L 3022 2063 
z
" transform="scale(0.015625)"/>
       <path id="DejaVuSans-3" transform="scale(0.015625)"/>
       <path id="DejaVuSans-b" d="M 1984 4856 
Q 1566 4138 1362 3434 
Q 1159 2731 1159 2009 
Q 1159 1288 1364 580 
Q 1569 -128 1984 -844 
L 1484 -844 
Q 1016 -109 783 600 
Q 550 1309 550 2009 
Q 550 2706 781 3412 
Q 1013 4119 1484 4856 
L 1984 4856 
z
" transform="scale(0.015625)"/>
       <path id="DejaVuSans-55" d="M 2631 2963 
Q 2534 3019 2420 3045 
Q 2306 3072 2169 3072 
Q 1681 3072 1420 2755 
Q 1159 2438 1159 1844 
L 1159 0 
L 581 0 
L 581 3500 
L 1159 3500 
L 1159 2956 
Q 1341 3275 1631 3429 
Q 1922 3584 2338 3584 
Q 2397 3584 2469 3576 
Q 2541 3569 2628 3553 
L 2631 2963 
z
" transform="scale(0.015625)"/>
       <path id="DejaVuSans-53" d="M 1159 525 
L 1159 -1331 
L 581 -1331 
L 581 3500 
L 1159 3500 
L 1159 2969 
Q 1341 3281 1617 3432 
Q 1894 3584 2278 3584 
Q 2916 3584 3314 3078 
Q 3713 2572 3713 1747 
Q 3713 922 3314 415 
Q 2916 -91 2278 -91 
Q 1894 -91 1617 61 
Q 1341 213 1159 525 
z
M 3116 1747 
Q 3116 2381 2855 2742 
Q 2594 3103 2138 3103 
Q 1681 3103 1420 2742 
Q 1159 2381 1159 1747 
Q 1159 1113 1420 752 
Q 1681 391 2138 391 
Q 2594 391 2855 752 
Q 3116 1113 3116 1747 
z
" transform="scale(0.015625)"/>
       <path id="DejaVuSans-57" d="M 1172 4494 
L 1172 3500 
L 2356 3500 
L 2356 3053 
L 1172 3053 
L 1172 1153 
Q 1172 725 1289 603 
Q 1406 481 1766 481 
L 2356 481 
L 2356 0 
L 1766 0 
Q 1100 0 847 248 
Q 594 497 594 1153 
L 594 3053 
L 172 3053 
L 172 3500 
L 594 3500 
L 594 4494 
L 1172 4494 
z
" transform="scale(0.015625)"/>
       <path id="DejaVuSans-4b" d="M 3513 2113 
L 3513 0 
L 2938 0 
L 2938 2094 
Q 2938 2591 2744 2837 
Q 2550 3084 2163 3084 
Q 1697 3084 1428 2787 
Q 1159 2491 1159 1978 
L 1159 0 
L 581 0 
L 581 4863 
L 1159 4863 
L 1159 2956 
Q 1366 3272 1645 3428 
Q 1925 3584 2291 3584 
Q 2894 3584 3203 3211 
Q 3513 2838 3513 2113 
z
" transform="scale(0.015625)"/>
       <path id="DejaVuSans-c" d="M 513 4856 
L 1013 4856 
Q 1481 4119 1714 3412 
Q 1947 2706 1947 2009 
Q 1947 1309 1714 600 
Q 1481 -109 1013 -844 
L 513 -844 
Q 928 -128 1133 580 
Q 1338 1288 1338 2009 
Q 1338 2731 1133 3434 
Q 928 4138 513 4856 
z
" transform="scale(0.015625)"/>
      </defs>
      <use xlink:href="#DejaVuSans-46"/>
      <use xlink:href="#DejaVuSans-52" transform="translate(54.984375 0)"/>
      <use xlink:href="#DejaVuSans-50" transform="translate(116.171875 0)"/>
      <use xlink:href="#DejaVuSans-58" transform="translate(213.578125 0)"/>
      <use xlink:href="#DejaVuSans-51" transform="translate(276.953125 0)"/>
      <use xlink:href="#DejaVuSans-4c" transform="translate(340.328125 0)"/>
      <use xlink:href="#DejaVuSans-47" transform="translate(368.109375 0)"/>
      <use xlink:href="#DejaVuSans-44" transform="translate(431.59375 0)"/>
      <use xlink:href="#DejaVuSans-47" transform="translate(492.875 0)"/>
      <use xlink:href="#DejaVuSans-48" transform="translate(556.359375 0)"/>
      <use xlink:href="#DejaVuSans-3" transform="translate(617.890625 0)"/>
      <use xlink:href="#DejaVuSans-b" transform="translate(649.671875 0)"/>
      <use xlink:href="#DejaVuSans-52" transform="translate(688.6875 0)"/>
      <use xlink:href="#DejaVuSans-55" transform="translate(749.875 0)"/>
      <use xlink:href="#DejaVuSans-47" transform="translate(789.234375 0)"/>
      <use xlink:href="#DejaVuSans-48" transform="translate(852.71875 0)"/>
      <use xlink:href="#DejaVuSans-51" transform="translate(914.25 0)"/>
      <use xlink:href="#DejaVuSans-44" transform="translate(977.625 0)"/>
      <use xlink:href="#DejaVuSans-47" transform="translate(1038.90625 0)"/>
      <use xlink:href="#DejaVuSans-44" transform="translate(1102.390625 0)"/>
      <use xlink:href="#DejaVuSans-3" transform="translate(1163.671875 0)"/>
      <use xlink:href="#DejaVuSans-53" transform="translate(1195.453125 0)"/>
      <use xlink:href="#DejaVuSans-52" transform="translate(1258.9375 0)"/>
      <use xlink:href="#DejaVuSans-55" transform="translate(1320.125 0)"/>
      <use xlink:href="#DejaVuSans-3" transform="translate(1361.234375 0)"/>
      <use xlink:href="#DejaVuSans-57" transform="translate(1393.015625 0)"/>
      <use xlink:href="#DejaVuSans-44" transform="translate(1432.21875 0)"/>
      <use xlink:href="#DejaVuSans-50" transform="translate(1493.5 0)"/>
      <use xlink:href="#DejaVuSans-44" transform="translate(1590.90625 0)"/>
      <use xlink:href="#DejaVuSans-51" transform="translate(1652.1875 0)"/>
      <use xlink:href="#DejaVuSans-4b" transform="translate(1715.5625 0)"/>
      <use xlink:href="#DejaVuSans-52" transform="translate(1778.9375 0)"/>
      <use xlink:href="#DejaVuSans-c" transform="translate(1840.125 0)"/>
     </g>
    </g>
   </g>
   <g id="matplotlib.axis_2">
    <g id="ytick_1">
     <g id="line2d_7">
      <path d="M 39.013203 157.044568 
L 258.611239 157.044568 
" clip-path="url(#p6552be59c3)" style="fill: none; stroke: #b0b0b0; stroke-opacity: 0.25; stroke-width: 0.8; stroke-linecap: square"/>
     </g>
     <g id="line2d_8">
      <defs>
       <path id="m924a6f9823" d="M 0 0 
L -3.5 0 
" style="stroke: #000000; stroke-width: 0.8"/>
      </defs>
      <g>
       <use xlink:href="#m924a6f9823" x="39.013203" y="157.044568" style="stroke: #000000; stroke-width: 0.8"/>
      </g>
     </g>
     <g id="text_5">
      <!-- 25 -->
      <g transform="translate(20.560703 160.463514) scale(0.09 -0.09)">
       <defs>
        <path id="DejaVuSans-18" d="M 691 4666 
L 3169 4666 
L 3169 4134 
L 1269 4134 
L 1269 2991 
Q 1406 3038 1543 3061 
Q 1681 3084 1819 3084 
Q 2600 3084 3056 2656 
Q 3513 2228 3513 1497 
Q 3513 744 3044 326 
Q 2575 -91 1722 -91 
Q 1428 -91 1123 -41 
Q 819 9 494 109 
L 494 744 
Q 775 591 1075 516 
Q 1375 441 1709 441 
Q 2250 441 2565 725 
Q 2881 1009 2881 1497 
Q 2881 1984 2565 2268 
Q 2250 2553 1709 2553 
Q 1456 2553 1204 2497 
Q 953 2441 691 2322 
L 691 4666 
z
" transform="scale(0.015625)"/>
       </defs>
       <use xlink:href="#DejaVuSans-15"/>
       <use xlink:href="#DejaVuSans-18" transform="translate(63.625 0)"/>
      </g>
     </g>
    </g>
    <g id="ytick_2">
     <g id="line2d_9">
      <path d="M 39.013203 128.730463 
L 258.611239 128.730463 
" clip-path="url(#p6552be59c3)" style="fill: none; stroke: #b0b0b0; stroke-opacity: 0.25; stroke-width: 0.8; stroke-linecap: square"/>
     </g>
     <g id="line2d_10">
      <g>
       <use xlink:href="#m924a6f9823" x="39.013203" y="128.730463" style="stroke: #000000; stroke-width: 0.8"/>
      </g>
     </g>
     <g id="text_6">
      <!-- 30 -->
      <g transform="translate(20.560703 132.149408) scale(0.09 -0.09)">
       <defs>
        <path id="DejaVuSans-13" d="M 2034 4250 
Q 1547 4250 1301 3770 
Q 1056 3291 1056 2328 
Q 1056 1369 1301 889 
Q 1547 409 2034 409 
Q 2525 409 2770 889 
Q 3016 1369 3016 2328 
Q 3016 3291 2770 3770 
Q 2525 4250 2034 4250 
z
M 2034 4750 
Q 2819 4750 3233 4129 
Q 3647 3509 3647 2328 
Q 3647 1150 3233 529 
Q 2819 -91 2034 -91 
Q 1250 -91 836 529 
Q 422 1150 422 2328 
Q 422 3509 836 4129 
Q 1250 4750 2034 4750 
z
" transform="scale(0.015625)"/>
       </defs>
       <use xlink:href="#DejaVuSans-16"/>
       <use xlink:href="#DejaVuSans-13" transform="translate(63.625 0)"/>
      </g>
     </g>
    </g>
    <g id="ytick_3">
     <g id="line2d_11">
      <path d="M 39.013203 100.416357 
L 258.611239 100.416357 
" clip-path="url(#p6552be59c3)" style="fill: none; stroke: #b0b0b0; stroke-opacity: 0.25; stroke-width: 0.8; stroke-linecap: square"/>
     </g>
     <g id="line2d_12">
      <g>
       <use xlink:href="#m924a6f9823" x="39.013203" y="100.416357" style="stroke: #000000; stroke-width: 0.8"/>
      </g>
     </g>
     <g id="text_7">
      <!-- 35 -->
      <g transform="translate(20.560703 103.835302) scale(0.09 -0.09)">
       <use xlink:href="#DejaVuSans-16"/>
       <use xlink:href="#DejaVuSans-18" transform="translate(63.625 0)"/>
      </g>
     </g>
    </g>
    <g id="ytick_4">
     <g id="line2d_13">
      <path d="M 39.013203 72.102251 
L 258.611239 72.102251 
" clip-path="url(#p6552be59c3)" style="fill: none; stroke: #b0b0b0; stroke-opacity: 0.25; stroke-width: 0.8; stroke-linecap: square"/>
     </g>
     <g id="line2d_14">
      <g>
       <use xlink:href="#m924a6f9823" x="39.013203" y="72.102251" style="stroke: #000000; stroke-width: 0.8"/>
      </g>
     </g>
     <g id="text_8">
      <!-- 40 -->
      <g transform="translate(20.560703 75.521197) scale(0.09 -0.09)">
       <defs>
        <path id="DejaVuSans-17" d="M 2419 4116 
L 825 1625 
L 2419 1625 
L 2419 4116 
z
M 2253 4666 
L 3047 4666 
L 3047 1625 
L 3713 1625 
L 3713 1100 
L 3047 1100 
L 3047 0 
L 2419 0 
L 2419 1100 
L 313 1100 
L 313 1709 
L 2253 4666 
z
" transform="scale(0.015625)"/>
       </defs>
       <use xlink:href="#DejaVuSans-17"/>
       <use xlink:href="#DejaVuSans-13" transform="translate(63.625 0)"/>
      </g>
     </g>
    </g>
    <g id="text_9">
     <!-- nº de nós -->
     <g transform="translate(14.398594 135.981457) rotate(-90) scale(0.09 -0.09)">
      <defs>
       <path id="DejaVuSans-7c" d="M 434 1850 
L 2584 1850 
L 2584 1466 
L 434 1466 
L 434 1850 
z
M 1509 4750 
Q 2069 4750 2391 4404 
Q 2713 4059 2713 3463 
Q 2713 2866 2391 2523 
Q 2069 2181 1509 2181 
Q 950 2181 625 2525 
Q 300 2869 300 3463 
Q 300 4059 625 4404 
Q 950 4750 1509 4750 
z
M 1509 4391 
Q 1181 4391 984 4139 
Q 788 3888 788 3463 
Q 788 3047 986 2797 
Q 1184 2547 1509 2547 
Q 1838 2547 2033 2797 
Q 2228 3047 2228 3463 
Q 2228 3891 2034 4141 
Q 1841 4391 1509 4391 
z
" transform="scale(0.015625)"/>
       <path id="DejaVuSans-b5" d="M 1959 3097 
Q 1497 3097 1228 2736 
Q 959 2375 959 1747 
Q 959 1119 1226 758 
Q 1494 397 1959 397 
Q 2419 397 2687 759 
Q 2956 1122 2956 1747 
Q 2956 2369 2687 2733 
Q 2419 3097 1959 3097 
z
M 1959 3584 
Q 2709 3584 3137 3096 
Q 3566 2609 3566 1747 
Q 3566 888 3137 398 
Q 2709 -91 1959 -91 
Q 1206 -91 779 398 
Q 353 888 353 1747 
Q 353 2609 779 3096 
Q 1206 3584 1959 3584 
z
M 2393 5119 
L 3015 5119 
L 1997 3944 
L 1518 3944 
L 2393 5119 
z
" transform="scale(0.015625)"/>
       <path id="DejaVuSans-56" d="M 2834 3397 
L 2834 2853 
Q 2591 2978 2328 3040 
Q 2066 3103 1784 3103 
Q 1356 3103 1142 2972 
Q 928 2841 928 2578 
Q 928 2378 1081 2264 
Q 1234 2150 1697 2047 
L 1894 2003 
Q 2506 1872 2764 1633 
Q 3022 1394 3022 966 
Q 3022 478 2636 193 
Q 2250 -91 1575 -91 
Q 1294 -91 989 -36 
Q 684 19 347 128 
L 347 722 
Q 666 556 975 473 
Q 1284 391 1588 391 
Q 1994 391 2212 530 
Q 2431 669 2431 922 
Q 2431 1156 2273 1281 
Q 2116 1406 1581 1522 
L 1381 1569 
Q 847 1681 609 1914 
Q 372 2147 372 2553 
Q 372 3047 722 3315 
Q 1072 3584 1716 3584 
Q 2034 3584 2315 3537 
Q 2597 3491 2834 3397 
z
" transform="scale(0.015625)"/>
      </defs>
      <use xlink:href="#DejaVuSans-51"/>
      <use xlink:href="#DejaVuSans-7c" transform="translate(63.375 0)"/>
      <use xlink:href="#DejaVuSans-3" transform="translate(110.5 0)"/>
      <use xlink:href="#DejaVuSans-47" transform="translate(142.28125 0)"/>
      <use xlink:href="#DejaVuSans-48" transform="translate(205.765625 0)"/>
      <use xlink:href="#DejaVuSans-3" transform="translate(267.296875 0)"/>
      <use xlink:href="#DejaVuSans-51" transform="translate(299.078125 0)"/>
      <use xlink:href="#DejaVuSans-b5" transform="translate(362.453125 0)"/>
      <use xlink:href="#DejaVuSans-56" transform="translate(423.640625 0)"/>
     </g>
    </g>
   </g>
   <g id="line2d_15">
    <path d="M 48.994932 60.776609 
L 148.812221 111.741999 
L 248.62951 168.370211 
" clip-path="url(#p6552be59c3)" style="fill: none; stroke: #7d7c78; stroke-width: 1.2; stroke-linecap: square"/>
    <defs>
     <path id="m2ef5e8eb3c" d="M 0 2 
C 0.530406 2 1.03916 1.789267 1.414214 1.414214 
C 1.789267 1.03916 2 0.530406 2 0 
C 2 -0.530406 1.789267 -1.03916 1.414214 -1.414214 
C 1.03916 -1.789267 0.530406 -2 0 -2 
C -0.530406 -2 -1.03916 -1.789267 -1.414214 -1.414214 
C -1.789267 -1.03916 -2 -0.530406 -2 0 
C -2 0.530406 -1.789267 1.03916 -1.414214 1.414214 
C -1.03916 1.789267 -0.530406 2 0 2 
z
" style="stroke: #7d7c78"/>
    </defs>
    <g clip-path="url(#p6552be59c3)">
     <use xlink:href="#m2ef5e8eb3c" x="48.994932" y="60.776609" style="fill: #7d7c78; stroke: #7d7c78"/>
     <use xlink:href="#m2ef5e8eb3c" x="148.812221" y="111.741999" style="fill: #7d7c78; stroke: #7d7c78"/>
     <use xlink:href="#m2ef5e8eb3c" x="248.62951" y="168.370211" style="fill: #7d7c78; stroke: #7d7c78"/>
    </g>
   </g>
   <g id="patch_3">
    <path d="M 39.013203 173.749891 
L 39.013203 55.396929 
" style="fill: none; stroke: #000000; stroke-width: 0.8; stroke-linejoin: miter; stroke-linecap: square"/>
   </g>
   <g id="patch_4">
    <path d="M 39.013203 173.749891 
L 258.611239 173.749891 
" style="fill: none; stroke: #000000; stroke-width: 0.8; stroke-linejoin: miter; stroke-linecap: square"/>
   </g>
   <g id="text_10">
    <!-- girvan_newman -->
    <g transform="translate(109.063784 49.396929) scale(0.1 -0.1)">
     <defs>
      <path id="DejaVuSans-4a" d="M 2906 1791 
Q 2906 2416 2648 2759 
Q 2391 3103 1925 3103 
Q 1463 3103 1205 2759 
Q 947 2416 947 1791 
Q 947 1169 1205 825 
Q 1463 481 1925 481 
Q 2391 481 2648 825 
Q 2906 1169 2906 1791 
z
M 3481 434 
Q 3481 -459 3084 -895 
Q 2688 -1331 1869 -1331 
Q 1566 -1331 1297 -1286 
Q 1028 -1241 775 -1147 
L 775 -588 
Q 1028 -725 1275 -790 
Q 1522 -856 1778 -856 
Q 2344 -856 2625 -561 
Q 2906 -266 2906 331 
L 2906 616 
Q 2728 306 2450 153 
Q 2172 0 1784 0 
Q 1141 0 747 490 
Q 353 981 353 1791 
Q 353 2603 747 3093 
Q 1141 3584 1784 3584 
Q 2172 3584 2450 3431 
Q 2728 3278 2906 2969 
L 2906 3500 
L 3481 3500 
L 3481 434 
z
" transform="scale(0.015625)"/>
      <path id="DejaVuSans-59" d="M 191 3500 
L 800 3500 
L 1894 563 
L 2988 3500 
L 3597 3500 
L 2284 0 
L 1503 0 
L 191 3500 
z
" transform="scale(0.015625)"/>
      <path id="DejaVuSans-42" d="M 3263 -1063 
L 3263 -1509 
L -63 -1509 
L -63 -1063 
L 3263 -1063 
z
" transform="scale(0.015625)"/>
      <path id="DejaVuSans-5a" d="M 269 3500 
L 844 3500 
L 1563 769 
L 2278 3500 
L 2956 3500 
L 3675 769 
L 4391 3500 
L 4966 3500 
L 4050 0 
L 3372 0 
L 2619 2869 
L 1863 0 
L 1184 0 
L 269 3500 
z
" transform="scale(0.015625)"/>
     </defs>
     <use xlink:href="#DejaVuSans-4a"/>
     <use xlink:href="#DejaVuSans-4c" transform="translate(63.484375 0)"/>
     <use xlink:href="#DejaVuSans-55" transform="translate(91.265625 0)"/>
     <use xlink:href="#DejaVuSans-59" transform="translate(132.375 0)"/>
     <use xlink:href="#DejaVuSans-44" transform="translate(191.5625 0)"/>
     <use xlink:href="#DejaVuSans-51" transform="translate(252.84375 0)"/>
     <use xlink:href="#DejaVuSans-42" transform="translate(316.21875 0)"/>
     <use xlink:href="#DejaVuSans-51" transform="translate(366.21875 0)"/>
     <use xlink:href="#DejaVuSans-48" transform="translate(429.59375 0)"/>
     <use xlink:href="#DejaVuSans-5a" transform="translate(491.125 0)"/>
     <use xlink:href="#DejaVuSans-50" transform="translate(572.90625 0)"/>
     <use xlink:href="#DejaVuSans-44" transform="translate(670.3125 0)"/>
     <use xlink:href="#DejaVuSans-51" transform="translate(731.59375 0)"/>
    </g>
   </g>
   <g id="legend_1">
    <g id="line2d_16">
     <path d="M 171.762177 63.255991 
L 177.762177 63.255991 
L 183.762177 63.255991 
" style="fill: none; stroke: #7d7c78; stroke-width: 1.2; stroke-linecap: square"/>
     <g>
      <use xlink:href="#m2ef5e8eb3c" x="177.762177" y="63.255991" style="fill: #7d7c78; stroke: #7d7c78"/>
     </g>
    </g>
    <g id="text_11">
     <!-- student_simple (k=3) -->
     <g transform="translate(188.562177 65.355991) scale(0.06 -0.06)">
      <defs>
       <path id="DejaVuSans-4f" d="M 603 4863 
L 1178 4863 
L 1178 0 
L 603 0 
L 603 4863 
z
" transform="scale(0.015625)"/>
       <path id="DejaVuSans-4e" d="M 581 4863 
L 1159 4863 
L 1159 1991 
L 2875 3500 
L 3609 3500 
L 1753 1863 
L 3688 0 
L 2938 0 
L 1159 1709 
L 1159 0 
L 581 0 
L 581 4863 
z
" transform="scale(0.015625)"/>
       <path id="DejaVuSans-20" d="M 678 2906 
L 4684 2906 
L 4684 2381 
L 678 2381 
L 678 2906 
z
M 678 1631 
L 4684 1631 
L 4684 1100 
L 678 1100 
L 678 1631 
z
" transform="scale(0.015625)"/>
      </defs>
      <use xlink:href="#DejaVuSans-56"/>
      <use xlink:href="#DejaVuSans-57" transform="translate(52.09375 0)"/>
      <use xlink:href="#DejaVuSans-58" transform="translate(91.296875 0)"/>
      <use xlink:href="#DejaVuSans-47" transform="translate(154.671875 0)"/>
      <use xlink:href="#DejaVuSans-48" transform="translate(218.15625 0)"/>
      <use xlink:href="#DejaVuSans-51" transform="translate(279.6875 0)"/>
      <use xlink:href="#DejaVuSans-57" transform="translate(343.0625 0)"/>
      <use xlink:href="#DejaVuSans-42" transform="translate(382.265625 0)"/>
      <use xlink:href="#DejaVuSans-56" transform="translate(432.265625 0)"/>
      <use xlink:href="#DejaVuSans-4c" transform="translate(484.359375 0)"/>
      <use xlink:href="#DejaVuSans-50" transform="translate(512.140625 0)"/>
      <use xlink:href="#DejaVuSans-53" transform="translate(609.546875 0)"/>
      <use xlink:href="#DejaVuSans-4f" transform="translate(673.03125 0)"/>
      <use xlink:href="#DejaVuSans-48" transform="translate(700.8125 0)"/>
      <use xlink:href="#DejaVuSans-3" transform="translate(762.34375 0)"/>
      <use xlink:href="#DejaVuSans-b" transform="translate(794.125 0)"/>
      <use xlink:href="#DejaVuSans-4e" transform="translate(833.140625 0)"/>
      <use xlink:href="#DejaVuSans-20" transform="translate(891.046875 0)"/>
      <use xlink:href="#DejaVuSans-16" transform="translate(974.84375 0)"/>
      <use xlink:href="#DejaVuSans-c" transform="translate(1038.46875 0)"/>
     </g>
    </g>
   </g>
  </g>
  <g id="axes_2">
   <g id="patch_5">
    <path d="M 271.831239 173.749891 
L 491.429276 173.749891 
L 491.429276 55.396929 
L 271.831239 55.396929 
z
" style="fill: #ffffff"/>
   </g>
   <g id="matplotlib.axis_3">
    <g id="xtick_4">
     <g id="line2d_17">
      <path d="M 281.812968 173.749891 
L 281.812968 55.396929 
" clip-path="url(#p86df795165)" style="fill: none; stroke: #b0b0b0; stroke-opacity: 0.25; stroke-width: 0.8; stroke-linecap: square"/>
     </g>
     <g id="line2d_18">
      <g>
       <use xlink:href="#m9ca0132ff7" x="281.812968" y="173.749891" style="stroke: #000000; stroke-width: 0.8"/>
      </g>
     </g>
     <g id="text_12">
      <!-- 1 -->
      <g transform="translate(278.949843 187.587781) scale(0.09 -0.09)">
       <use xlink:href="#DejaVuSans-14"/>
      </g>
     </g>
    </g>
    <g id="xtick_5">
     <g id="line2d_19">
      <path d="M 381.630257 173.749891 
L 381.630257 55.396929 
" clip-path="url(#p86df795165)" style="fill: none; stroke: #b0b0b0; stroke-opacity: 0.25; stroke-width: 0.8; stroke-linecap: square"/>
     </g>
     <g id="line2d_20">
      <g>
       <use xlink:href="#m9ca0132ff7" x="381.630257" y="173.749891" style="stroke: #000000; stroke-width: 0.8"/>
      </g>
     </g>
     <g id="text_13">
      <!-- 2 -->
      <g transform="translate(378.767132 187.587781) scale(0.09 -0.09)">
       <use xlink:href="#DejaVuSans-15"/>
      </g>
     </g>
    </g>
    <g id="xtick_6">
     <g id="line2d_21">
      <path d="M 481.447547 173.749891 
L 481.447547 55.396929 
" clip-path="url(#p86df795165)" style="fill: none; stroke: #b0b0b0; stroke-opacity: 0.25; stroke-width: 0.8; stroke-linecap: square"/>
     </g>
     <g id="line2d_22">
      <g>
       <use xlink:href="#m9ca0132ff7" x="481.447547" y="173.749891" style="stroke: #000000; stroke-width: 0.8"/>
      </g>
     </g>
     <g id="text_14">
      <!-- 3 -->
      <g transform="translate(478.584422 187.587781) scale(0.09 -0.09)">
       <use xlink:href="#DejaVuSans-16"/>
      </g>
     </g>
    </g>
    <g id="text_15">
     <!-- comunidade (ordenada por tamanho) -->
     <g transform="translate(297.068929 200.588484) scale(0.09 -0.09)">
      <use xlink:href="#DejaVuSans-46"/>
      <use xlink:href="#DejaVuSans-52" transform="translate(54.984375 0)"/>
      <use xlink:href="#DejaVuSans-50" transform="translate(116.171875 0)"/>
      <use xlink:href="#DejaVuSans-58" transform="translate(213.578125 0)"/>
      <use xlink:href="#DejaVuSans-51" transform="translate(276.953125 0)"/>
      <use xlink:href="#DejaVuSans-4c" transform="translate(340.328125 0)"/>
      <use xlink:href="#DejaVuSans-47" transform="translate(368.109375 0)"/>
      <use xlink:href="#DejaVuSans-44" transform="translate(431.59375 0)"/>
      <use xlink:href="#DejaVuSans-47" transform="translate(492.875 0)"/>
      <use xlink:href="#DejaVuSans-48" transform="translate(556.359375 0)"/>
      <use xlink:href="#DejaVuSans-3" transform="translate(617.890625 0)"/>
      <use xlink:href="#DejaVuSans-b" transform="translate(649.671875 0)"/>
      <use xlink:href="#DejaVuSans-52" transform="translate(688.6875 0)"/>
      <use xlink:href="#DejaVuSans-55" transform="translate(749.875 0)"/>
      <use xlink:href="#DejaVuSans-47" transform="translate(789.234375 0)"/>
      <use xlink:href="#DejaVuSans-48" transform="translate(852.71875 0)"/>
      <use xlink:href="#DejaVuSans-51" transform="translate(914.25 0)"/>
      <use xlink:href="#DejaVuSans-44" transform="translate(977.625 0)"/>
      <use xlink:href="#DejaVuSans-47" transform="translate(1038.90625 0)"/>
      <use xlink:href="#DejaVuSans-44" transform="translate(1102.390625 0)"/>
      <use xlink:href="#DejaVuSans-3" transform="translate(1163.671875 0)"/>
      <use xlink:href="#DejaVuSans-53" transform="translate(1195.453125 0)"/>
      <use xlink:href="#DejaVuSans-52" transform="translate(1258.9375 0)"/>
      <use xlink:href="#DejaVuSans-55" transform="translate(1320.125 0)"/>
      <use xlink:href="#DejaVuSans-3" transform="translate(1361.234375 0)"/>
      <use xlink:href="#DejaVuSans-57" transform="translate(1393.015625 0)"/>
      <use xlink:href="#DejaVuSans-44" transform="translate(1432.21875 0)"/>
      <use xlink:href="#DejaVuSans-50" transform="translate(1493.5 0)"/>
      <use xlink:href="#DejaVuSans-44" transform="translate(1590.90625 0)"/>
      <use xlink:href="#DejaVuSans-51" transform="translate(1652.1875 0)"/>
      <use xlink:href="#DejaVuSans-4b" transform="translate(1715.5625 0)"/>
      <use xlink:href="#DejaVuSans-52" transform="translate(1778.9375 0)"/>
      <use xlink:href="#DejaVuSans-c" transform="translate(1840.125 0)"/>
     </g>
    </g>
   </g>
   <g id="matplotlib.axis_4">
    <g id="ytick_5">
     <g id="line2d_23">
      <path d="M 271.831239 157.044568 
L 491.429276 157.044568 
" clip-path="url(#p86df795165)" style="fill: none; stroke: #b0b0b0; stroke-opacity: 0.25; stroke-width: 0.8; stroke-linecap: square"/>
     </g>
     <g id="line2d_24">
      <g>
       <use xlink:href="#m924a6f9823" x="271.831239" y="157.044568" style="stroke: #000000; stroke-width: 0.8"/>
      </g>
     </g>
    </g>
    <g id="ytick_6">
     <g id="line2d_25">
      <path d="M 271.831239 128.730463 
L 491.429276 128.730463 
" clip-path="url(#p86df795165)" style="fill: none; stroke: #b0b0b0; stroke-opacity: 0.25; stroke-width: 0.8; stroke-linecap: square"/>
     </g>
     <g id="line2d_26">
      <g>
       <use xlink:href="#m924a6f9823" x="271.831239" y="128.730463" style="stroke: #000000; stroke-width: 0.8"/>
      </g>
     </g>
    </g>
    <g id="ytick_7">
     <g id="line2d_27">
      <path d="M 271.831239 100.416357 
L 491.429276 100.416357 
" clip-path="url(#p86df795165)" style="fill: none; stroke: #b0b0b0; stroke-opacity: 0.25; stroke-width: 0.8; stroke-linecap: square"/>
     </g>
     <g id="line2d_28">
      <g>
       <use xlink:href="#m924a6f9823" x="271.831239" y="100.416357" style="stroke: #000000; stroke-width: 0.8"/>
      </g>
     </g>
    </g>
    <g id="ytick_8">
     <g id="line2d_29">
      <path d="M 271.831239 72.102251 
L 491.429276 72.102251 
" clip-path="url(#p86df795165)" style="fill: none; stroke: #b0b0b0; stroke-opacity: 0.25; stroke-width: 0.8; stroke-linecap: square"/>
     </g>
     <g id="line2d_30">
      <g>
       <use xlink:href="#m924a6f9823" x="271.831239" y="72.102251" style="stroke: #000000; stroke-width: 0.8"/>
      </g>
     </g>
    </g>
   </g>
   <g id="line2d_31">
    <path d="M 281.812968 77.765072 
L 381.630257 128.730463 
L 481.447547 134.393284 
" clip-path="url(#p86df795165)" style="fill: none; stroke: #7d7c78; stroke-width: 1.2; stroke-linecap: square"/>
    <g clip-path="url(#p86df795165)">
     <use xlink:href="#m2ef5e8eb3c" x="281.812968" y="77.765072" style="fill: #7d7c78; stroke: #7d7c78"/>
     <use xlink:href="#m2ef5e8eb3c" x="381.630257" y="128.730463" style="fill: #7d7c78; stroke: #7d7c78"/>
     <use xlink:href="#m2ef5e8eb3c" x="481.447547" y="134.393284" style="fill: #7d7c78; stroke: #7d7c78"/>
    </g>
   </g>
   <g id="patch_6">
    <path d="M 271.831239 173.749891 
L 271.831239 55.396929 
" style="fill: none; stroke: #000000; stroke-width: 0.8; stroke-linejoin: miter; stroke-linecap: square"/>
   </g>
   <g id="patch_7">
    <path d="M 271.831239 173.749891 
L 491.429276 173.749891 
" style="fill: none; stroke: #000000; stroke-width: 0.8; stroke-linejoin: miter; stroke-linecap: square"/>
   </g>
   <g id="text_16">
    <!-- louvain -->
    <g transform="translate(363.43182 49.396929) scale(0.1 -0.1)">
     <use xlink:href="#DejaVuSans-4f"/>
     <use xlink:href="#DejaVuSans-52" transform="translate(27.78125 0)"/>
     <use xlink:href="#DejaVuSans-58" transform="translate(88.96875 0)"/>
     <use xlink:href="#DejaVuSans-59" transform="translate(152.34375 0)"/>
     <use xlink:href="#DejaVuSans-44" transform="translate(211.53125 0)"/>
     <use xlink:href="#DejaVuSans-4c" transform="translate(272.8125 0)"/>
     <use xlink:href="#DejaVuSans-51" transform="translate(300.59375 0)"/>
    </g>
   </g>
   <g id="legend_2">
    <g id="line2d_32">
     <path d="M 404.580213 63.255991 
L 410.580213 63.255991 
L 416.580213 63.255991 
" style="fill: none; stroke: #7d7c78; stroke-width: 1.2; stroke-linecap: square"/>
     <g>
      <use xlink:href="#m2ef5e8eb3c" x="410.580213" y="63.255991" style="fill: #7d7c78; stroke: #7d7c78"/>
     </g>
    </g>
    <g id="text_17">
     <!-- student_simple (k=3) -->
     <g transform="translate(421.380213 65.355991) scale(0.06 -0.06)">
      <use xlink:href="#DejaVuSans-56"/>
      <use xlink:href="#DejaVuSans-57" transform="translate(52.09375 0)"/>
      <use xlink:href="#DejaVuSans-58" transform="translate(91.296875 0)"/>
      <use xlink:href="#DejaVuSans-47" transform="translate(154.671875 0)"/>
      <use xlink:href="#DejaVuSans-48" transform="translate(218.15625 0)"/>
      <use xlink:href="#DejaVuSans-51" transform="translate(279.6875 0)"/>
      <use xlink:href="#DejaVuSans-57" transform="translate(343.0625 0)"/>
      <use xlink:href="#DejaVuSans-42" transform="translate(382.265625 0)"/>
      <use xlink:href="#DejaVuSans-56" transform="translate(432.265625 0)"/>
      <use xlink:href="#DejaVuSans-4c" transform="translate(484.359375 0)"/>
      <use xlink:href="#DejaVuSans-50" transform="translate(512.140625 0)"/>
      <use xlink:href="#DejaVuSans-53" transform="translate(609.546875 0)"/>
      <use xlink:href="#DejaVuSans-4f" transform="translate(673.03125 0)"/>
      <use xlink:href="#DejaVuSans-48" transform="translate(700.8125 0)"/>
      <use xlink:href="#DejaVuSans-3" transform="translate(762.34375 0)"/>
      <use xlink:href="#DejaVuSans-b" transform="translate(794.125 0)"/>
      <use xlink:href="#DejaVuSans-4e" transform="translate(833.140625 0)"/>
      <use xlink:href="#DejaVuSans-20" transform="translate(891.046875 0)"/>
      <use xlink:href="#DejaVuSans-16" transform="translate(974.84375 0)"/>
      <use xlink:href="#DejaVuSans-c" transform="translate(1038.46875 0)"/>
     </g>
    </g>
   </g>
  </g>
  <g id="text_18">
   <!-- synthetic_v1 -->
   <g transform="translate(214.937744 15.406312) scale(0.108 -0.108)">
    <defs>
     <path id="DejaVuSans-5c" d="M 2059 -325 
Q 1816 -950 1584 -1140 
Q 1353 -1331 966 -1331 
L 506 -1331 
L 506 -850 
L 844 -850 
Q 1081 -850 1212 -737 
Q 1344 -625 1503 -206 
L 1606 56 
L 191 3500 
L 800 3500 
L 1894 763 
L 2988 3500 
L 3597 3500 
L 2059 -325 
z
" transform="scale(0.015625)"/>
    </defs>
    <use xlink:href="#DejaVuSans-56"/>
    <use xlink:href="#DejaVuSans-5c" transform="translate(52.09375 0)"/>
    <use xlink:href="#DejaVuSans-51" transform="translate(111.28125 0)"/>
    <use xlink:href="#DejaVuSans-57" transform="translate(174.65625 0)"/>
    <use xlink:href="#DejaVuSans-4b" transform="translate(213.859375 0)"/>
    <use xlink:href="#DejaVuSans-48" transform="translate(277.234375 0)"/>
    <use xlink:href="#DejaVuSans-57" transform="translate(338.765625 0)"/>
    <use xlink:href="#DejaVuSans-4c" transform="translate(377.96875 0)"/>
    <use xlink:href="#DejaVuSans-46" transform="translate(405.75 0)"/>
    <use xlink:href="#DejaVuSans-42" transform="translate(460.734375 0)"/>
    <use xlink:href="#DejaVuSans-59" transform="translate(510.734375 0)"/>
    <use xlink:href="#DejaVuSans-14" transform="translate(569.921875 0)"/>
   </g>
  </g>
 </g>
 <defs>
  <clipPath id="p6552be59c3">
   <rect x="39.013203" y="55.396929" width="219.598036" height="118.352962"/>
  </clipPath>
  <clipPath id="p86df795165">
   <rect x="271.831239" y="55.396929" width="219.598036" height="118.352962"/>
  </clipPath>
 </defs>
</svg>
